<?xml version="1.0" encoding="UTF-8" standalone="no" ?>
<!DOCTYPE svg PUBLIC "-//W3C//DTD SVG 1.1//EN" "http://www.w3.org/Graphics/SVG/1.1/DTD/svg11.dtd">
<svg xmlns="http://www.w3.org/2000/svg" xmlns:xlink="http://www.w3.org/1999/xlink" version="1.1" width="1080" height="1080" viewBox="0 0 1080 1080" xml:space="preserve">
<desc>Created with Fabric.js 4.2.0</desc>
<defs>
</defs>
<rect x="0" y="0" width="100%" height="100%" fill="transparent"></rect>
<g transform="matrix(1 0 0 1 540 540)" id="41fe82d9-abe1-4214-8025-43367918a294"  >
<rect style="stroke: none; stroke-width: 1; stroke-dasharray: none; stroke-linecap: butt; stroke-dashoffset: 0; stroke-linejoin: miter; stroke-miterlimit: 4; fill: rgb(255,255,255); fill-rule: nonzero; opacity: 1;" vector-effect="non-scaling-stroke"  x="-540" y="-540" rx="0" ry="0" width="1080" height="1080" />
</g>
<g transform="matrix(1 0 0 1 540 540)" id="58f4a558-f003-4d4b-aee1-12928a6aa5b0"  >
</g>
<g transform="matrix(10.38 0 0 10.38 540 540)" id="9c731db0-ade6-471d-ba0f-263bc4d13879"  >
<path style="stroke: rgb(0,0,0); stroke-width: 0; stroke-dasharray: none; stroke-linecap: butt; stroke-dashoffset: 0; stroke-linejoin: miter; stroke-miterlimit: 4; fill: rgb(0,0,0); fill-rule: nonzero; opacity: 0.09;" vector-effect="non-scaling-stroke"  transform=" translate(-36.19, -36.19)" d="M 22.57 2.648 C 18.081 4.468 14.053 7.144 10.599 10.597 C 7.144 14.051 4.471 18.08 2.65 22.568 C 0.892 26.904 0 31.486 0 36.186 C 0 40.885 0.892 45.467 2.65 49.801 C 4.471 54.29 7.145 58.319 10.599 61.772000000000006 C 14.053 65.227 18.08 67.90100000000001 22.57 69.721 C 26.906 71.48100000000001 31.487000000000002 72.37 36.187 72.37 C 40.887 72.37 45.467 71.47800000000001 49.803 69.721 C 54.291 67.90100000000001 58.321 65.227 61.774 61.772000000000006 C 65.229 58.319 67.903 54.292 69.723 49.801 C 71.481 45.467 72.371 40.885000000000005 72.371 36.186 C 72.371 31.486 71.47999999999999 26.904 69.723 22.567999999999998 C 67.903 18.08 65.227 14.049999999999997 61.774 10.596999999999998 C 58.321 7.143999999999998 54.295 4.467999999999998 49.803 2.647999999999998 C 45.467 0.891 40.887 0 36.187 0 C 31.487 0 26.906 0.891 22.57 2.648 z M 9.044 51.419 C 7.301 50.324999999999996 5.695 49.065 4.273000000000001 47.580999999999996 C 2.1010000000000004 41.468999999999994 1.7330000000000005 34.852 3.1720000000000006 28.570999999999994 C 3.8490000000000006 27.235999999999994 4.619000000000001 25.953999999999994 5.49 24.725999999999996 C 5.759 24.346999999999994 6.008 23.951999999999995 6.296 23.583999999999996 L 14.462 28.415999999999997 C 14.462 28.479999999999997 14.462 28.549999999999997 14.462 28.620999999999995 C 14.440999999999999 33.013 14.887 37.373 15.775 41.669999999999995 C 15.778 41.69 15.781 41.70099999999999 15.785 41.718999999999994 L 9.452 51.648999999999994 C 9.314 51.579 9.177 51.503 9.044 51.419 z M 33.324 68.206 C 34.733 68.925 36.181999999999995 69.532 37.671 70.026 C 31.346 70.301 24.958 68.819 19.311 65.579 L 33 68.018 C 33.105 68.085 33.212 68.149 33.324 68.206 z M 33.274 65.735 L 17.12 62.856 C 15.23 60.561 13.530000000000001 58.133 12.069 55.538000000000004 C 11.697000000000001 54.87800000000001 11.282 54.237 10.967 53.548 L 17.294 43.628 C 17.434 43.663 17.59 43.7 17.767 43.747 C 21.725 44.806 25.753 45.559 29.808999999999997 46.149 C 30.045999999999996 46.182 30.243999999999996 46.211 30.412999999999997 46.229 L 37.997 59.342 C 36.681 61.192 35.35 63.032 33.99 64.852 C 33.764 65.155 33.524 65.446 33.274 65.735 z M 60.15 60.149 C 58.864 61.436 57.498999999999995 62.596000000000004 56.07 63.63 C 55.833 61.736000000000004 55.424 59.88 54.847 58.067 L 62.939 42.971000000000004 C 65.168 41.956 67.318 40.80500000000001 69.314 39.378 C 69.57499999999999 39.193 69.79199999999999 38.986 69.96 38.76 C 69.374 46.561 66.104 54.196 60.15 60.149 z M 59.791 40.571 C 60.092 41.144999999999996 60.388999999999996 41.724999999999994 60.687 42.312999999999995 L 52.870999999999995 56.892999999999994 C 52.82599999999999 56.90299999999999 52.782999999999994 56.913 52.73799999999999 56.919 C 48.51299999999999 57.708 44.25399999999999 58.128 39.95899999999999 58.147999999999996 L 32.15899999999999 44.660999999999994 C 33.37299999999999 42.407 34.57599999999999 40.14399999999999 35.76899999999999 37.879999999999995 C 36.57899999999999 36.343999999999994 37.37499999999999 34.797999999999995 38.16999999999999 33.25299999999999 L 54.31299999999999 31.59499999999999 C 56.29 34.495 58.163 37.457 59.791 40.571 z M 56.516 23.277 C 55.75 25.3 54.93 27.302 54.114999999999995 29.308 L 38.388999999999996 30.923 C 38.20099999999999 30.674999999999997 38.00599999999999 30.430999999999997 37.800999999999995 30.197999999999997 C 35.943999999999996 28.094999999999995 34.074999999999996 26.004999999999995 32.208999999999996 23.909 C 32.226 23.887999999999998 32.242999999999995 23.872 32.26 23.852999999999998 C 31.506999999999998 23.101 30.752 22.348999999999997 29.999 21.595 L 34.376999999999995 8.414 C 34.678999999999995 8.334 34.983 8.267 35.28999999999999 8.234 C 37.669999999999995 7.992 40.05299999999999 7.718 42.43899999999999 7.58 C 43.89999999999999 7.498 45.36899999999999 7.4510000000000005 46.85499999999999 7.556 L 57.68699999999999 19.765 C 57.314 20.943 56.95 22.124 56.516 23.277 z M 60.15 12.221 C 63.138 15.211 65.452 18.623 67.088 22.268 C 65.064 20.875 62.89999999999999 19.729 60.62499999999999 18.795 C 60.270999999999994 18.649 59.907999999999994 18.520000000000003 59.538999999999994 18.393 L 48.877 6.376 C 48.951 5.857 48.99 5.337000000000001 49.006 4.813000000000001 C 53.062 6.464 56.864 8.936 60.15 12.221 z M 25.334 4.182 C 25.376 4.213 25.396 4.239000000000001 25.419999999999998 4.246 C 27.857 5.088 30.073999999999998 6.328 32.164 7.799 L 28.074 20.116 C 28.053 20.122 28.033 20.128 28.013 20.137 C 27.176000000000002 20.483 26.323 20.793 25.499000000000002 21.168 C 22.104000000000003 22.711 18.794000000000004 24.419999999999998 15.676000000000002 26.469 L 7.605000000000002 21.694000000000003 C 7.617000000000002 21.442000000000004 7.660000000000002 21.186000000000003 7.746000000000002 20.958000000000002 C 8.288000000000002 19.514000000000003 8.821000000000002 18.062 9.434000000000003 16.647000000000002 C 9.906000000000002 15.557000000000002 10.444000000000003 14.504000000000001 11.031000000000002 13.475000000000001 C 11.415000000000003 13.051000000000002 11.813000000000002 12.631000000000002 12.223000000000003 12.221000000000002 C 16.056000000000004 8.389000000000003 20.586000000000002 5.668000000000002 25.409000000000002 4.059000000000001 C 25.384 4.098 25.358 4.139 25.334 4.182 z" stroke-linecap="round" />
</g>
</svg>